<svg width="526" height="100" viewBox="0 0 526 100" fill="none" xmlns="http://www.w3.org/2000/svg">
<path d="M137 18.3837V78.5637H147.431V37.1312H147.987L164.571 78.3874H172.365L188.948 37.2193H189.505V78.5637H199.936V18.3837H186.634L168.819 61.9907H168.116L150.302 18.3837H137Z" fill="#1B3862"/>
<path d="M224.254 79.4746C231.315 79.4746 235.535 76.1541 237.468 72.3635H237.82V78.5637H248.016V48.3561C248.016 36.4259 238.318 32.841 229.733 32.841C220.269 32.841 213.003 37.0724 210.659 45.3001L220.562 46.7106C221.617 43.6252 224.606 40.9806 229.792 40.9806C234.714 40.9806 237.41 43.5077 237.41 47.9448V48.1211C237.41 51.1771 234.216 51.324 226.276 52.1762C217.545 53.1165 209.194 55.7317 209.194 65.8988C209.194 74.773 215.669 79.4746 224.254 79.4746ZM227.008 71.6583C222.584 71.6583 219.42 69.6307 219.42 65.7225C219.42 61.6381 222.965 59.9337 227.712 59.2579C230.495 58.8759 236.062 58.1707 237.439 57.054V62.3727C237.439 67.3975 233.396 71.6583 227.008 71.6583Z" fill="#1B3862"/>
<path d="M258.681 78.5637H269.288V33.4287H258.681V78.5637ZM264.014 27.0228C267.383 27.0228 270.137 24.437 270.137 21.2634C270.137 18.0605 267.383 15.4746 264.014 15.4746C260.615 15.4746 257.861 18.0605 257.861 21.2634C257.861 24.437 260.615 27.0228 264.014 27.0228Z" fill="#1B3862"/>
<path d="M290.801 18.3837H280.194V78.5637H290.801V18.3837Z" fill="#1B3862"/>
<path d="M310.205 18.3837H298.28L319.405 78.5637H332.824L353.978 18.3837H342.024L326.437 65.7519H325.821L310.205 18.3837Z" fill="#1B3862"/>
<path d="M361.413 78.5637H372.019V33.4287H361.413V78.5637ZM366.746 27.0228C370.115 27.0228 372.869 24.437 372.869 21.2634C372.869 18.0605 370.115 15.4746 366.746 15.4746C363.347 15.4746 360.593 18.0605 360.593 21.2634C360.593 24.437 363.347 27.0228 366.746 27.0228Z" fill="#1B3862"/>
<path d="M399.627 79.3571C407.362 79.3571 410.849 74.7437 412.519 71.4526H413.163V78.5637H423.594V18.3837H412.958V40.8924H412.519C410.907 37.6307 407.596 32.841 399.656 32.841C389.255 32.841 381.08 41.01 381.08 56.055C381.08 70.9236 389.021 79.3571 399.627 79.3571ZM402.586 70.6298C395.584 70.6298 391.892 64.459 391.892 55.9962C391.892 47.5921 395.525 41.5683 402.586 41.5683C409.413 41.5683 413.163 47.2395 413.163 55.9962C413.163 64.7528 409.354 70.6298 402.586 70.6298Z" fill="#1B3862"/>
<path d="M454.82 79.4452C465.309 79.4452 472.517 74.3029 474.392 66.4572L464.489 65.3405C463.053 69.1606 459.537 71.1587 454.967 71.1587C448.111 71.1587 443.569 66.6335 443.481 58.9053H474.832V55.6436C474.832 39.8052 465.339 32.841 454.263 32.841C441.372 32.841 432.963 42.3323 432.963 56.2607C432.963 70.4241 441.254 79.4452 454.82 79.4452ZM443.51 51.7354C443.833 45.976 448.081 41.1275 454.41 41.1275C460.504 41.1275 464.606 45.594 464.665 51.7354H443.51Z" fill="#1B3862"/>
<path d="M503.435 79.4452C516.62 79.4452 525 70.1303 525 56.1725C525 42.1854 516.62 32.841 503.435 32.841C490.251 32.841 481.871 42.1854 481.871 56.1725C481.871 70.1303 490.251 79.4452 503.435 79.4452ZM503.494 70.9236C496.198 70.9236 492.624 64.4002 492.624 56.1431C492.624 47.886 496.198 41.2744 503.494 41.2744C510.672 41.2744 514.247 47.886 514.247 56.1431C514.247 64.4002 510.672 70.9236 503.494 70.9236Z" fill="#1B3862"/>
<rect width="100" height="100" rx="16.5" fill="#277BFA"/>
<rect width="100" height="100" rx="16.5" fill="url(#paint0_linear_2301:62887)"/>
<path d="M68.75 59.375L21.875 84.375L21.875 34.375L68.75 59.375Z" fill="white"/>
<g style="mix-blend-mode:soft-light">
<path d="M84.375 29.6875C84.375 37.454 78.079 43.75 70.3125 43.75C62.546 43.75 56.25 37.454 56.25 29.6875C56.25 21.921 62.546 15.625 70.3125 15.625C78.079 15.625 84.375 21.921 84.375 29.6875Z" fill="white"/>
</g>
<path opacity="0.5" d="M84.375 29.6875C84.375 37.454 78.079 43.75 70.3125 43.75C62.546 43.75 56.25 37.454 56.25 29.6875C56.25 21.921 62.546 15.625 70.3125 15.625C78.079 15.625 84.375 21.921 84.375 29.6875Z" fill="white"/>
<defs>
<linearGradient id="paint0_linear_2301:62887" x1="38.7153" y1="-41.9643" x2="135.692" y2="21.2775" gradientUnits="userSpaceOnUse">
<stop stop-color="#428CFB"/>
<stop offset="1" stop-color="#0537DB"/>
</linearGradient>
</defs>
</svg>
